STARTFONT 2.1
COMMENT converted Oberon font (using FontToBDF by R.Crelier 10.1.91)
FONT Times20b.Scn.Fnt
SIZE 20 75 75
FONTBOUNDINGBOX  21 23 0 -5
STARTPROPERTIES 3
FONT_ASCENT 18
FONT_DESCENT 5
DEFAULT_CHAR 0
ENDPROPERTIES
CHARS 121
STARTCHAR c0
ENCODING -1 0
SWIDTH 0 0
DWIDTH 0 0
BBX 0 0 0 0
BITMAP
ENDCHAR
STARTCHAR c9
ENCODING -1 9
SWIDTH 774 0
DWIDTH 24 0
BBX 0 0 0 0
BITMAP
ENDCHAR
STARTCHAR c32
ENCODING -1 32
SWIDTH 193 0
DWIDTH 6 0
BBX 0 0 0 0
BITMAP
ENDCHAR
STARTCHAR c33
ENCODING -1 33
SWIDTH 225 0
DWIDTH 7 0
BBX 3 15 2 0
BITMAP
E0
E0
E0
E0
E0
E0
E0
40
40
40
00
00
E0
E0
E0
ENDCHAR
STARTCHAR c34
ENCODING -1 34
SWIDTH 354 0
DWIDTH 11 0
BBX 7 6 2 9
BITMAP
EE
EE
66
44
44
88
ENDCHAR
STARTCHAR c35
ENCODING -1 35
SWIDTH 419 0
DWIDTH 13 0
BBX 11 15 1 0
BITMAP
0880
0880
0880
0880
7FE0
7FE0
1100
1100
1100
FFC0
FFC0
2200
2200
2200
2200
ENDCHAR
STARTCHAR c36
ENCODING -1 36
SWIDTH 451 0
DWIDTH 14 0
BBX 10 19 2 -2
BITMAP
0400
0400
3FC0
75C0
E4C0
E440
E440
F400
7C00
3F00
0F80
0BC0
89C0
89C0
C9C0
EB80
FF00
0800
0800
ENDCHAR
STARTCHAR c37
ENCODING -1 37
SWIDTH 580 0
DWIDTH 18 0
BBX 17 15 0 0
BITMAP
381800
6C1000
C63000
C62000
C66000
C64000
C6CE00
6C9B00
39B180
013180
033180
023180
063180
041B00
0C0E00
ENDCHAR
STARTCHAR c38
ENCODING -1 38
SWIDTH 516 0
DWIDTH 16 0
BBX 14 15 2 0
BITMAP
0700
0980
1980
1980
1D00
1E00
0E3C
1F10
2710
6390
E3A0
E1C0
E1E0
F2E0
7C78
ENDCHAR
STARTCHAR c39
ENCODING -1 39
SWIDTH 225 0
DWIDTH 7 0
BBX 3 6 2 9
BITMAP
E0
E0
60
40
40
80
ENDCHAR
STARTCHAR c40
ENCODING -1 40
SWIDTH 290 0
DWIDTH 9 0
BBX 6 21 2 -5
BITMAP
04
08
10
30
20
60
60
C0
C0
C0
C0
C0
C0
C0
60
60
20
30
10
08
04
ENDCHAR
STARTCHAR c41
ENCODING -1 41
SWIDTH 290 0
DWIDTH 9 0
BBX 6 21 1 -5
BITMAP
80
40
20
30
10
18
18
0C
0C
0C
0C
0C
0C
0C
18
18
10
30
20
40
80
ENDCHAR
STARTCHAR c42
ENCODING -1 42
SWIDTH 419 0
DWIDTH 13 0
BBX 11 12 1 0
BITMAP
0600
0600
C460
E4E0
3580
0E00
0E00
3580
E4E0
C460
0C00
0C00
ENDCHAR
STARTCHAR c43
ENCODING -1 43
SWIDTH 387 0
DWIDTH 12 0
BBX 12 11 0 0
BITMAP
0600
0600
0600
0600
0600
FFF0
0600
0600
0600
0600
0600
ENDCHAR
STARTCHAR c44
ENCODING -1 44
SWIDTH 193 0
DWIDTH 6 0
BBX 3 7 1 -4
BITMAP
E0
E0
E0
60
40
40
80
ENDCHAR
STARTCHAR c45
ENCODING -1 45
SWIDTH 161 0
DWIDTH 5 0
BBX 5 1 0 5
BITMAP
F8
ENDCHAR
STARTCHAR c46
ENCODING -1 46
SWIDTH 193 0
DWIDTH 6 0
BBX 3 3 1 0
BITMAP
E0
E0
E0
ENDCHAR
STARTCHAR c47
ENCODING -1 47
SWIDTH 354 0
DWIDTH 11 0
BBX 9 15 1 0
BITMAP
0180
0180
0300
0300
0600
0600
0C00
0C00
1800
1800
3000
3000
6000
6000
C000
ENDCHAR
STARTCHAR c48
ENCODING -1 48
SWIDTH 387 0
DWIDTH 12 0
BBX 10 15 1 0
BITMAP
1E00
7380
6180
E1C0
E1C0
E1C0
E1C0
E1C0
E1C0
E1C0
E1C0
E1C0
6180
7380
1E00
ENDCHAR
STARTCHAR c49
ENCODING -1 49
SWIDTH 387 0
DWIDTH 12 0
BBX 7 15 3 0
BITMAP
18
F8
38
38
38
38
38
38
38
38
38
38
38
38
FE
ENDCHAR
STARTCHAR c50
ENCODING -1 50
SWIDTH 387 0
DWIDTH 12 0
BBX 10 15 1 0
BITMAP
1E00
7F00
4780
8380
0380
0380
0300
0700
0600
0C00
1800
3040
60C0
FF80
FF80
ENDCHAR
STARTCHAR c51
ENCODING -1 51
SWIDTH 387 0
DWIDTH 12 0
BBX 9 15 1 0
BITMAP
0E00
3F00
4F00
0700
0600
0400
0800
3F00
0780
0380
0380
0380
C300
E600
7800
ENDCHAR
STARTCHAR c52
ENCODING -1 52
SWIDTH 387 0
DWIDTH 12 0
BBX 11 15 1 0
BITMAP
0300
0700
0F00
0F00
1700
2700
4700
4700
8700
FFE0
FFE0
0700
0700
0700
0700
ENDCHAR
STARTCHAR c53
ENCODING -1 53
SWIDTH 387 0
DWIDTH 12 0
BBX 9 15 2 0
BITMAP
3F80
3F00
7F00
4000
4000
FC00
FF00
FF00
0780
0380
0380
0300
C300
E600
7800
ENDCHAR
STARTCHAR c54
ENCODING -1 54
SWIDTH 387 0
DWIDTH 12 0
BBX 10 15 1 0
BITMAP
0780
1C00
3800
3000
7000
6000
EF00
F180
E1C0
E1C0
E1C0
E1C0
6180
7380
1E00
ENDCHAR
STARTCHAR c55
ENCODING -1 55
SWIDTH 387 0
DWIDTH 12 0
BBX 10 15 1 0
BITMAP
7FC0
7FC0
FF80
8180
8300
0300
0300
0600
0600
0600
0C00
0C00
0C00
1800
1800
ENDCHAR
STARTCHAR c56
ENCODING -1 56
SWIDTH 387 0
DWIDTH 12 0
BBX 10 15 1 0
BITMAP
3F80
71C0
E0C0
E0C0
E0C0
F180
7E00
1E00
1F80
63C0
C1C0
C1C0
C1C0
E380
7E00
ENDCHAR
STARTCHAR c57
ENCODING -1 57
SWIDTH 387 0
DWIDTH 12 0
BBX 10 15 1 0
BITMAP
1E00
7380
6180
E1C0
E1C0
E1C0
E1C0
63C0
3DC0
0180
0380
0300
0700
0E00
7800
ENDCHAR
STARTCHAR c58
ENCODING -1 58
SWIDTH 225 0
DWIDTH 7 0
BBX 3 11 3 0
BITMAP
E0
E0
E0
00
00
00
00
00
E0
E0
E0
ENDCHAR
STARTCHAR c59
ENCODING -1 59
SWIDTH 225 0
DWIDTH 7 0
BBX 3 15 3 -4
BITMAP
E0
E0
E0
00
00
00
00
00
E0
E0
E0
60
40
40
80
ENDCHAR
STARTCHAR c60
ENCODING -1 60
SWIDTH 419 0
DWIDTH 13 0
BBX 11 10 1 0
BITMAP
00E0
03C0
0F00
3C00
E000
E000
3C00
0F00
03C0
00E0
ENDCHAR
STARTCHAR c61
ENCODING -1 61
SWIDTH 387 0
DWIDTH 12 0
BBX 10 5 1 3
BITMAP
FFC0
0000
0000
0000
FFC0
ENDCHAR
STARTCHAR c62
ENCODING -1 62
SWIDTH 419 0
DWIDTH 13 0
BBX 11 10 1 0
BITMAP
E000
7800
1E00
0780
00E0
00E0
0780
1E00
7800
E000
ENDCHAR
STARTCHAR c63
ENCODING -1 63
SWIDTH 322 0
DWIDTH 10 0
BBX 7 15 2 0
BITMAP
7C
CE
CE
CE
0C
1C
18
30
30
30
00
00
38
38
38
ENDCHAR
STARTCHAR c64
ENCODING -1 64
SWIDTH 709 0
DWIDTH 22 0
BBX 18 18 2 -3
BITMAP
01FC00
070700
1C0180
100180
30ECC0
613CC0
6338C0
C738C0
C638C0
CE7080
CE7180
CC5100
CCB600
CF3800
600000
600000
383000
0FC000
ENDCHAR
STARTCHAR c65
ENCODING -1 65
SWIDTH 419 0
DWIDTH 13 0
BBX 13 15 0 0
BITMAP
0300
0300
0300
0780
0780
0B80
0BC0
09C0
11C0
11E0
3FE0
20E0
60F0
60F0
F3F8
ENDCHAR
STARTCHAR c66
ENCODING -1 66
SWIDTH 483 0
DWIDTH 15 0
BBX 13 15 1 0
BITMAP
FFE0
3870
3838
3838
3838
3830
3860
3F80
3860
3830
3838
3838
3838
3870
FFE0
ENDCHAR
STARTCHAR c67
ENCODING -1 67
SWIDTH 483 0
DWIDTH 15 0
BBX 12 15 2 0
BITMAP
0FF0
3870
7030
7010
E010
E000
E000
E000
E000
E000
E000
7000
7010
3860
0F80
ENDCHAR
STARTCHAR c68
ENCODING -1 68
SWIDTH 580 0
DWIDTH 18 0
BBX 15 15 1 0
BITMAP
FFE0
3838
381C
381C
380E
380E
380E
380E
380E
380E
380E
381C
381C
3838
FFE0
ENDCHAR
STARTCHAR c69
ENCODING -1 69
SWIDTH 451 0
DWIDTH 14 0
BBX 13 15 1 0
BITMAP
FFF0
3870
3810
3810
3880
3880
3980
3F80
3980
3880
3888
3808
3818
3870
FFF0
ENDCHAR
STARTCHAR c70
ENCODING -1 70
SWIDTH 419 0
DWIDTH 13 0
BBX 12 15 1 0
BITMAP
FFF0
3870
3810
3810
3880
3880
3980
3F80
3980
3880
3880
3800
3800
3800
FE00
ENDCHAR
STARTCHAR c71
ENCODING -1 71
SWIDTH 548 0
DWIDTH 17 0
BBX 14 15 2 0
BITMAP
0FF0
3870
7030
7010
E010
E000
E000
E1FC
E070
E070
E070
7070
7070
3870
0F80
ENDCHAR
STARTCHAR c72
ENCODING -1 72
SWIDTH 548 0
DWIDTH 17 0
BBX 15 15 1 0
BITMAP
FEFE
3838
3838
3838
3838
3838
3838
3FF8
3838
3838
3838
3838
3838
3838
FEFE
ENDCHAR
STARTCHAR c73
ENCODING -1 73
SWIDTH 290 0
DWIDTH 9 0
BBX 7 15 1 0
BITMAP
FE
38
38
38
38
38
38
38
38
38
38
38
38
38
FE
ENDCHAR
STARTCHAR c74
ENCODING -1 74
SWIDTH 354 0
DWIDTH 11 0
BBX 10 15 0 0
BITMAP
1FC0
0700
0700
0700
0700
0700
0700
0700
0700
0700
0700
E700
E600
CE00
7800
ENDCHAR
STARTCHAR c75
ENCODING -1 75
SWIDTH 516 0
DWIDTH 16 0
BBX 15 15 1 0
BITMAP
FE3E
3818
3830
3820
3840
3880
3980
3BC0
39E0
38E0
3870
3878
3838
381C
FE1E
ENDCHAR
STARTCHAR c76
ENCODING -1 76
SWIDTH 387 0
DWIDTH 12 0
BBX 11 15 1 0
BITMAP
FE00
3800
3800
3800
3800
3800
3800
3800
3800
3800
3820
3820
3860
39C0
FFC0
ENDCHAR
STARTCHAR c77
ENCODING -1 77
SWIDTH 709 0
DWIDTH 22 0
BBX 20 15 1 0
BITMAP
FE03F0
3E03C0
2E05C0
2F05C0
2705C0
2709C0
2789C0
2391C0
2391C0
23D1C0
21E1C0
21E1C0
21E1C0
20C1C0
F8C3F0
ENDCHAR
STARTCHAR c78
ENCODING -1 78
SWIDTH 580 0
DWIDTH 18 0
BBX 16 15 1 0
BITMAP
FC1F
3C04
2E04
2F04
2704
2784
23C4
21C4
21E4
20F4
2074
207C
203C
201C
F81C
ENDCHAR
STARTCHAR c79
ENCODING -1 79
SWIDTH 580 0
DWIDTH 18 0
BBX 14 15 2 0
BITMAP
0FC0
3870
7038
7038
E01C
E01C
E01C
E01C
E01C
E01C
E01C
7038
7038
3870
0FC0
ENDCHAR
STARTCHAR c80
ENCODING -1 80
SWIDTH 451 0
DWIDTH 14 0
BBX 13 15 1 0
BITMAP
FFE0
3870
3838
3838
3838
3838
3870
3FE0
3800
3800
3800
3800
3800
3800
FE00
ENDCHAR
STARTCHAR c81
ENCODING -1 81
SWIDTH 580 0
DWIDTH 18 0
BBX 15 19 2 -4
BITMAP
0FC0
3870
7038
7038
E01C
E01C
E01C
E01C
E01C
E01C
E01C
7038
7038
3870
0FC0
01E0
00F0
0078
001E
ENDCHAR
STARTCHAR c82
ENCODING -1 82
SWIDTH 516 0
DWIDTH 16 0
BBX 15 15 1 0
BITMAP
FFE0
3870
3838
3838
3838
3830
3860
3F80
38E0
38E0
3870
3878
3838
381C
FE1E
ENDCHAR
STARTCHAR c83
ENCODING -1 83
SWIDTH 451 0
DWIDTH 14 0
BBX 10 15 2 0
BITMAP
1FC0
71C0
60C0
E040
E040
F000
7E00
7F80
1F80
03C0
81C0
81C0
C180
E380
FE00
ENDCHAR
STARTCHAR c84
ENCODING -1 84
SWIDTH 419 0
DWIDTH 13 0
BBX 13 15 0 0
BITMAP
FFF8
E738
8708
8708
0700
0700
0700
0700
0700
0700
0700
0700
0700
0700
1FC0
ENDCHAR
STARTCHAR c85
ENCODING -1 85
SWIDTH 548 0
DWIDTH 17 0
BBX 15 15 1 0
BITMAP
FE3E
3808
3808
3808
3808
3808
3808
3808
3808
3808
3808
3808
1C10
1E30
07C0
ENDCHAR
STARTCHAR c86
ENCODING -1 86
SWIDTH 419 0
DWIDTH 13 0
BBX 13 15 0 0
BITMAP
FE78
7830
7830
3820
3820
3C40
1C40
1C80
1E80
0E80
0F00
0F00
0600
0600
0600
ENDCHAR
STARTCHAR c87
ENCODING -1 87
SWIDTH 677 0
DWIDTH 21 0
BBX 21 15 0 0
BITMAP
FDFE78
787830
787830
383820
383860
3C7C40
1C5C40
1C9C80
1E9E80
0E8E80
0F0F00
0F0F00
060600
060600
060600
ENDCHAR
STARTCHAR c88
ENCODING -1 88
SWIDTH 451 0
DWIDTH 14 0
BBX 13 15 1 0
BITMAP
FC78
7830
3820
3C40
1C40
0E80
0F00
0700
0780
0B80
11C0
11E0
20E0
60F0
F1F8
ENDCHAR
STARTCHAR c89
ENCODING -1 89
SWIDTH 387 0
DWIDTH 12 0
BBX 11 15 1 0
BITMAP
F8E0
7060
7040
3880
3880
1D00
1D00
0E00
0E00
0E00
0E00
0E00
0E00
0E00
3F80
ENDCHAR
STARTCHAR c90
ENCODING -1 90
SWIDTH 483 0
DWIDTH 15 0
BBX 14 15 0 0
BITMAP
7FFC
7038
6070
40F0
40E0
01C0
0380
0780
0700
0E04
1C04
3C0C
3818
7078
FFF8
ENDCHAR
STARTCHAR c91
ENCODING -1 91
SWIDTH 290 0
DWIDTH 9 0
BBX 5 21 3 -5
BITMAP
F8
C0
C0
C0
C0
C0
C0
C0
C0
C0
C0
C0
C0
C0
C0
C0
C0
C0
C0
C0
F8
ENDCHAR
STARTCHAR c92
ENCODING -1 92
SWIDTH 354 0
DWIDTH 11 0
BBX 9 15 1 0
BITMAP
C000
C000
6000
6000
3000
3000
1800
1800
0C00
0C00
0600
0600
0300
0300
0180
ENDCHAR
STARTCHAR c93
ENCODING -1 93
SWIDTH 290 0
DWIDTH 9 0
BBX 5 21 1 -5
BITMAP
F8
18
18
18
18
18
18
18
18
18
18
18
18
18
18
18
18
18
18
18
F8
ENDCHAR
STARTCHAR c94
ENCODING -1 94
SWIDTH 387 0
DWIDTH 12 0
BBX 10 12 1 0
BITMAP
0C00
1E00
2D00
6D80
CCC0
8C40
0C00
0C00
0C00
0C00
0C00
0C00
ENDCHAR
STARTCHAR c95
ENCODING -1 95
SWIDTH 387 0
DWIDTH 12 0
BBX 10 1 1 -1
BITMAP
FFC0
ENDCHAR
STARTCHAR c96
ENCODING -1 96
SWIDTH 354 0
DWIDTH 11 0
BBX 4 5 3 12
BITMAP
C0
C0
60
20
10
ENDCHAR
STARTCHAR c97
ENCODING -1 97
SWIDTH 354 0
DWIDTH 11 0
BBX 10 11 1 0
BITMAP
3E00
6700
E700
C700
0700
3F00
6700
E700
E700
FB40
7380
ENDCHAR
STARTCHAR c98
ENCODING -1 98
SWIDTH 419 0
DWIDTH 13 0
BBX 11 16 1 0
BITMAP
F000
7000
7000
7000
7000
7380
77C0
79E0
70E0
70E0
70E0
70E0
70E0
71C0
7BC0
5F00
ENDCHAR
STARTCHAR c99
ENCODING -1 99
SWIDTH 290 0
DWIDTH 9 0
BBX 8 11 1 0
BITMAP
1E
73
63
E0
E0
E0
E0
E0
F1
7E
3C
ENDCHAR
STARTCHAR c100
ENCODING -1 100
SWIDTH 419 0
DWIDTH 13 0
BBX 11 16 1 0
BITMAP
03C0
01C0
01C0
01C0
01C0
1FC0
7BC0
71C0
E1C0
E1C0
E1C0
E1C0
E1C0
F3C0
7DC0
39E0
ENDCHAR
STARTCHAR c101
ENCODING -1 101
SWIDTH 322 0
DWIDTH 10 0
BBX 9 11 1 0
BITMAP
1E00
7700
6380
E380
FF80
E000
E000
E000
F080
7F00
3C00
ENDCHAR
STARTCHAR c102
ENCODING -1 102
SWIDTH 225 0
DWIDTH 7 0
BBX 6 16 1 0
BITMAP
0C
34
30
70
70
FC
70
70
70
70
70
70
70
70
70
F8
ENDCHAR
STARTCHAR c103
ENCODING -1 103
SWIDTH 354 0
DWIDTH 11 0
BBX 10 16 1 -5
BITMAP
3FC0
7700
E380
E380
E380
7700
3E00
4000
C000
FF80
FFC0
7FC0
41C0
C1C0
C380
7E00
ENDCHAR
STARTCHAR c104
ENCODING -1 104
SWIDTH 419 0
DWIDTH 13 0
BBX 11 16 1 0
BITMAP
F000
7000
7000
7000
7000
7380
77C0
79C0
71C0
71C0
71C0
71C0
71C0
71C0
71C0
FBE0
ENDCHAR
STARTCHAR c105
ENCODING -1 105
SWIDTH 225 0
DWIDTH 7 0
BBX 5 16 1 0
BITMAP
70
70
70
00
00
F0
70
70
70
70
70
70
70
70
70
F8
ENDCHAR
STARTCHAR c106
ENCODING -1 106
SWIDTH 193 0
DWIDTH 6 0
BBX 5 21 0 -5
BITMAP
38
38
38
00
00
78
38
38
38
38
38
38
38
38
38
38
38
38
38
B0
E0
ENDCHAR
STARTCHAR c107
ENCODING -1 107
SWIDTH 387 0
DWIDTH 12 0
BBX 11 16 1 0
BITMAP
F000
7000
7000
7000
7000
71E0
70C0
7080
7100
7200
7700
7780
7380
73C0
71C0
F9E0
ENDCHAR
STARTCHAR c108
ENCODING -1 108
SWIDTH 225 0
DWIDTH 7 0
BBX 5 16 1 0
BITMAP
F0
70
70
70
70
70
70
70
70
70
70
70
70
70
70
F8
ENDCHAR
STARTCHAR c109
ENCODING -1 109
SWIDTH 612 0
DWIDTH 19 0
BBX 17 11 1 0
BITMAP
F38E00
77DF00
79E700
71C700
71C700
71C700
71C700
71C700
71C700
71C700
FBEF80
ENDCHAR
STARTCHAR c110
ENCODING -1 110
SWIDTH 419 0
DWIDTH 13 0
BBX 11 11 1 0
BITMAP
F380
77C0
79C0
71C0
71C0
71C0
71C0
71C0
71C0
71C0
FBE0
ENDCHAR
STARTCHAR c111
ENCODING -1 111
SWIDTH 387 0
DWIDTH 12 0
BBX 10 11 1 0
BITMAP
1E00
7380
6180
E1C0
E1C0
E1C0
E1C0
E1C0
6180
7380
1E00
ENDCHAR
STARTCHAR c112
ENCODING -1 112
SWIDTH 419 0
DWIDTH 13 0
BBX 11 16 1 -5
BITMAP
F380
77C0
79E0
70E0
70E0
70E0
70E0
70E0
71C0
7BC0
7F00
7000
7000
7000
7000
F800
ENDCHAR
STARTCHAR c113
ENCODING -1 113
SWIDTH 419 0
DWIDTH 13 0
BBX 11 16 1 -5
BITMAP
1F40
7BC0
71C0
E1C0
E1C0
E1C0
E1C0
E1C0
F3C0
7DC0
39C0
01C0
01C0
01C0
01C0
03E0
ENDCHAR
STARTCHAR c114
ENCODING -1 114
SWIDTH 258 0
DWIDTH 8 0
BBX 7 11 1 0
BITMAP
F6
76
7E
70
70
70
70
70
70
70
F8
ENDCHAR
STARTCHAR c115
ENCODING -1 115
SWIDTH 322 0
DWIDTH 10 0
BBX 8 11 1 0
BITMAP
3F
63
E1
E1
F8
7E
1F
87
87
C6
FC
ENDCHAR
STARTCHAR c116
ENCODING -1 116
SWIDTH 258 0
DWIDTH 8 0
BBX 7 14 1 0
BITMAP
10
30
70
FE
70
70
70
70
70
70
70
72
7C
38
ENDCHAR
STARTCHAR c117
ENCODING -1 117
SWIDTH 419 0
DWIDTH 13 0
BBX 11 11 1 0
BITMAP
F3C0
71C0
71C0
71C0
71C0
71C0
71C0
71C0
73C0
7DC0
39E0
ENDCHAR
STARTCHAR c118
ENCODING -1 118
SWIDTH 290 0
DWIDTH 9 0
BBX 9 11 0 0
BITMAP
FB80
7180
7180
7100
3900
3B00
3A00
1E00
1C00
1C00
1C00
ENDCHAR
STARTCHAR c119
ENCODING -1 119
SWIDTH 483 0
DWIDTH 15 0
BBX 15 11 0 0
BITMAP
FBEE
71C6
71C6
71C4
38E4
3AEC
3AE8
1E78
1C70
1C70
1C70
ENDCHAR
STARTCHAR c120
ENCODING -1 120
SWIDTH 322 0
DWIDTH 10 0
BBX 10 11 0 0
BITMAP
F9C0
7080
7900
3A00
1C00
1E00
0E00
1700
2780
4380
E7C0
ENDCHAR
STARTCHAR c121
ENCODING -1 121
SWIDTH 290 0
DWIDTH 9 0
BBX 9 16 0 -5
BITMAP
FB80
7180
7180
7100
3900
3B00
3A00
1E00
1C00
1C00
1C00
0800
0800
6800
7000
7000
ENDCHAR
STARTCHAR c122
ENCODING -1 122
SWIDTH 322 0
DWIDTH 10 0
BBX 9 11 0 0
BITMAP
7F80
6380
4700
4F00
0E00
1C00
3800
7880
7080
E180
FF80
ENDCHAR
STARTCHAR c123
ENCODING -1 123
SWIDTH 290 0
DWIDTH 9 0
BBX 8 21 0 -5
BITMAP
07
0C
08
18
18
18
18
18
10
30
E0
30
10
18
18
18
18
18
08
0C
07
ENDCHAR
STARTCHAR c124
ENCODING -1 124
SWIDTH 290 0
DWIDTH 9 0
BBX 2 21 4 -5
BITMAP
C0
C0
C0
C0
C0
C0
C0
C0
C0
C0
C0
C0
C0
C0
C0
C0
C0
C0
C0
C0
C0
ENDCHAR
STARTCHAR c125
ENCODING -1 125
SWIDTH 290 0
DWIDTH 9 0
BBX 8 21 1 -5
BITMAP
E0
30
10
18
18
18
18
18
08
0C
07
0C
08
18
18
18
18
18
10
30
E0
ENDCHAR
STARTCHAR c126
ENCODING -1 126
SWIDTH 451 0
DWIDTH 14 0
BBX 12 4 1 4
BITMAP
3C10
4E10
8720
83C0
ENDCHAR
STARTCHAR c128
ENCODING -1 128
SWIDTH 419 0
DWIDTH 13 0
BBX 13 18 0 0
BITMAP
1860
1860
0000
0300
0300
0300
0780
0780
0B80
0BC0
09C0
11C0
11E0
3FE0
20E0
60F0
60F0
F3F8
ENDCHAR
STARTCHAR c129
ENCODING -1 129
SWIDTH 580 0
DWIDTH 18 0
BBX 14 18 2 0
BITMAP
1860
1860
0000
0FC0
3870
7038
7038
E01C
E01C
E01C
E01C
E01C
E01C
E01C
7038
7038
3870
0FC0
ENDCHAR
STARTCHAR c130
ENCODING -1 130
SWIDTH 548 0
DWIDTH 17 0
BBX 15 18 1 0
BITMAP
0630
0630
0000
FE3E
3808
3808
3808
3808
3808
3808
3808
3808
3808
3808
3808
1C10
1E30
07C0
ENDCHAR
STARTCHAR c131
ENCODING -1 131
SWIDTH 354 0
DWIDTH 11 0
BBX 10 15 1 0
BITMAP
6600
6600
0000
0000
3E00
6700
E700
C700
0700
3F00
6700
E700
E700
FB40
7380
ENDCHAR
STARTCHAR c132
ENCODING -1 132
SWIDTH 387 0
DWIDTH 12 0
BBX 10 15 1 0
BITMAP
3300
3300
0000
0000
1E00
7380
6180
E1C0
E1C0
E1C0
E1C0
E1C0
6180
7380
1E00
ENDCHAR
STARTCHAR c133
ENCODING -1 133
SWIDTH 419 0
DWIDTH 13 0
BBX 11 15 1 0
BITMAP
1980
1980
0000
0000
F3C0
71C0
71C0
71C0
71C0
71C0
71C0
71C0
73C0
7DC0
39E0
ENDCHAR
STARTCHAR c134
ENCODING -1 134
SWIDTH 354 0
DWIDTH 11 0
BBX 10 17 1 0
BITMAP
1C00
1C00
3600
2200
4100
0000
3E00
6700
E700
C700
0700
3F00
6700
E700
E700
FB40
7380
ENDCHAR
STARTCHAR c135
ENCODING -1 135
SWIDTH 354 0
DWIDTH 11 0
BBX 9 17 1 0
BITMAP
1C00
1C00
3600
2200
4100
0000
1E00
7700
6380
E380
FF80
E000
E000
E000
F080
7F00
3C00
ENDCHAR
STARTCHAR c136
ENCODING -1 136
SWIDTH 225 0
DWIDTH 7 0
BBX 7 17 0 0
BITMAP
38
38
6C
44
82
00
78
38
38
38
38
38
38
38
38
38
7C
ENDCHAR
STARTCHAR c137
ENCODING -1 137
SWIDTH 387 0
DWIDTH 12 0
BBX 10 17 1 0
BITMAP
0E00
0E00
1B00
1100
2080
0000
1E00
7380
6180
E1C0
E1C0
E1C0
E1C0
E1C0
6180
7380
1E00
ENDCHAR
STARTCHAR c138
ENCODING -1 138
SWIDTH 419 0
DWIDTH 13 0
BBX 11 17 1 0
BITMAP
0E00
0E00
1B00
1100
2080
0000
F3C0
71C0
71C0
71C0
71C0
71C0
71C0
71C0
73C0
7DC0
39E0
ENDCHAR
STARTCHAR c139
ENCODING -1 139
SWIDTH 354 0
DWIDTH 11 0
BBX 10 17 1 0
BITMAP
3000
3000
1800
0800
0400
0000
3E00
6700
E700
C700
0700
3F00
6700
E700
E700
FB40
7380
ENDCHAR
STARTCHAR c140
ENCODING -1 140
SWIDTH 322 0
DWIDTH 10 0
BBX 9 17 1 0
BITMAP
3000
3000
1800
0800
0400
0000
1E00
7700
6380
E380
FF80
E000
E000
E000
F080
7F00
3C00
ENDCHAR
STARTCHAR c141
ENCODING -1 141
SWIDTH 225 0
DWIDTH 7 0
BBX 5 17 1 0
BITMAP
60
60
30
10
08
00
F0
70
70
70
70
70
70
70
70
70
F8
ENDCHAR
STARTCHAR c142
ENCODING -1 142
SWIDTH 387 0
DWIDTH 12 0
BBX 10 17 1 0
BITMAP
1800
1800
0C00
0400
0200
0000
1E00
7380
6180
E1C0
E1C0
E1C0
E1C0
E1C0
6180
7380
1E00
ENDCHAR
STARTCHAR c143
ENCODING -1 143
SWIDTH 419 0
DWIDTH 13 0
BBX 11 17 1 0
BITMAP
0C00
0C00
0600
0200
0100
0000
F3C0
71C0
71C0
71C0
71C0
71C0
71C0
71C0
73C0
7DE0
3980
ENDCHAR
STARTCHAR c144
ENCODING -1 144
SWIDTH 322 0
DWIDTH 10 0
BBX 9 17 1 0
BITMAP
0300
0300
0600
0400
0800
0000
1E00
7700
6380
E380
FF80
E000
E000
E000
F080
7F00
3C00
ENDCHAR
STARTCHAR c145
ENCODING -1 145
SWIDTH 322 0
DWIDTH 10 0
BBX 9 15 1 0
BITMAP
3300
3300
0000
0000
1E00
7700
6380
E380
FF80
E000
E000
E000
F080
7F00
3C00
ENDCHAR
STARTCHAR c146
ENCODING -1 146
SWIDTH 225 0
DWIDTH 7 0
BBX 5 15 1 0
BITMAP
D8
D8
00
00
F0
70
70
70
70
70
70
70
70
70
F8
ENDCHAR
STARTCHAR c147
ENCODING -1 147
SWIDTH 290 0
DWIDTH 9 0
BBX 8 16 1 -5
BITMAP
1F
73
61
E1
E0
E0
E0
E0
F1
7E
3C
00
38
18
10
20
ENDCHAR
STARTCHAR c148
ENCODING -1 148
SWIDTH 354 0
DWIDTH 11 0
BBX 10 17 1 0
BITMAP
0300
0300
0600
0400
0800
0000
3E00
6700
E700
C700
0700
3F00
6700
E700
E700
FB40
7380
ENDCHAR
STARTCHAR c149
ENCODING -1 149
SWIDTH 419 0
DWIDTH 13 0
BBX 11 16 1 0
BITMAP
1C80
2E80
2700
0000
0000
F380
77C0
79C0
71C0
71C0
71C0
71C0
71C0
71C0
71C0
FBE0
ENDCHAR
STARTCHAR c155
ENCODING -1 155
SWIDTH 387 0
DWIDTH 12 0
BBX 12 1 0 5
BITMAP
FFF0
ENDCHAR
STARTCHAR c159
ENCODING -1 159
SWIDTH 387 0
DWIDTH 12 0
BBX 0 0 0 0
BITMAP
ENDCHAR
ENDFONT
